<svg version="1.1" id="Layer_1" xmlns="http://www.w3.org/2000/svg" xmlns:xlink="http://www.w3.org/1999/xlink" x="0px" y="0px"
	 width="100%" viewBox="0 0 1024 1024" enable-background="new 0 0 1024 1024" xml:space="preserve">
<path fill="#000000" opacity="1.000000" stroke="none" 
	d="
M834.961731,604.947266 
	C822.955383,617.927979 808.579163,623.757690 791.098206,623.504761 
	C759.458252,623.046997 727.806824,623.358093 696.160278,623.403015 
	C692.004456,623.408875 687.849792,623.760620 683.692993,623.902527 
	C682.187134,623.953979 680.543396,623.977051 679.803711,622.320496 
	C679.184387,620.933655 679.925232,619.731689 680.858948,618.703613 
	C690.710022,607.857605 700.567139,597.017090 710.422424,586.174866 
	C712.550049,583.834229 715.329956,583.724609 718.232361,583.729004 
	C738.053101,583.759216 757.873840,583.741394 777.694641,583.718018 
	C795.695190,583.696777 807.296204,574.393738 810.383057,556.524475 
	C814.649719,531.825989 805.437317,508.516022 781.930908,495.870941 
	C773.325256,491.241608 763.976868,488.916229 754.097900,488.963684 
	C739.607544,489.033264 725.116577,488.993652 710.625916,489.005005 
	C705.027344,489.009399 703.745056,487.872986 703.703857,482.408569 
	C703.634766,473.248230 703.796143,464.084839 703.626282,454.927094 
	C703.542236,450.397064 705.482239,448.665894 709.904236,448.702759 
	C726.892273,448.844452 743.944031,447.905975 760.858765,449.047791 
	C812.116028,452.507904 848.369629,489.681610 854.141846,535.156433 
	C856.814819,556.214294 854.050537,576.345947 842.787842,594.801147 
	C840.613159,598.364624 838.137634,601.704834 834.961731,604.947266 
z"/>
<path fill="#000000" opacity="1.000000" stroke="none" 
	d="
M398.722565,613.740723 
	C398.742462,526.327759 398.749359,439.386444 398.794830,352.445129 
	C398.806610,329.881927 411.291687,315.427795 433.519043,312.053955 
	C441.823364,310.793457 443.187073,311.977814 443.186401,320.378845 
	C443.178741,417.811798 443.173615,515.244751 443.172211,612.677673 
	C443.172089,620.275757 442.165710,621.303406 434.523590,621.304077 
	C425.030090,621.304993 415.536438,621.317627 406.043121,621.272766 
	C400.461914,621.246460 399.271210,620.050232 398.722565,613.740723 
z"/>
<path fill="#000000" opacity="1.000000" stroke="none" 
	d="
M364.290894,530.999756 
	C364.398041,543.664001 365.085968,555.858337 364.461884,567.985107 
	C363.625732,584.233398 358.103149,598.992737 346.746063,610.990356 
	C331.507355,627.088440 315.206757,642.122925 299.318085,657.569641 
	C292.268311,664.423218 285.251709,671.315979 278.394562,678.360718 
	C275.054138,681.792603 271.441376,683.462097 266.493134,683.374817 
	C251.498322,683.110168 236.495636,683.315308 221.496384,683.251099 
	C219.627121,683.243103 217.073257,684.126709 216.163300,681.758545 
	C215.312851,679.545227 217.443130,678.160767 218.822998,676.795898 
	C247.730667,648.202332 276.534424,619.501770 305.657776,591.129395 
	C315.863647,581.186646 320.717285,569.503784 320.681915,555.436768 
	C320.623199,532.104431 320.588745,508.770721 320.770905,485.439362 
	C320.935028,464.414093 337.726074,448.466064 358.871429,448.652466 
	C363.983948,448.697571 364.389008,451.598511 364.377380,455.502899 
	C364.302917,480.501709 364.308289,505.500824 364.290894,530.999756 
z"/>
<path fill="#000000" opacity="1.000000" stroke="none" 
	d="
M450.886322,535.001587 
	C451.269531,511.903503 447.747894,519.056152 464.588226,503.658447 
	C478.104095,491.300446 491.821472,479.150970 505.741150,467.250153 
	C517.207458,457.446838 533.686951,457.303894 545.127869,467.240997 
	C563.854492,483.506134 582.177856,500.237366 600.590210,516.861816 
	C608.113220,523.654297 616.191895,529.941711 621.758911,538.641052 
	C624.827393,543.436096 627.505249,548.455383 628.121277,554.206055 
	C629.172546,564.020813 622.431580,571.420471 612.570923,571.288818 
	C609.431213,571.247009 606.297729,570.642029 603.164307,570.270508 
	C601.513733,570.074829 600.140137,569.203308 600.007935,567.553528 
	C599.685913,563.534668 596.667786,561.560364 594.078857,559.299805 
	C574.013733,541.779785 553.895020,524.321228 533.826904,506.804596 
	C528.413147,502.079163 522.909668,501.640259 517.211365,506.540161 
	C501.310913,520.212891 485.636719,534.148499 469.844360,547.947388 
	C464.250885,552.834839 458.574219,557.627075 452.935516,562.462769 
	C452.319885,562.270203 451.704285,562.077698 451.088684,561.885132 
	C451.022003,553.090454 450.955353,544.295776 450.886322,535.001587 
z"/>
<path fill="#000000" opacity="1.000000" stroke="none" 
	d="
M636.968750,488.161743 
	C637.148804,471.478973 643.483093,458.992950 658.752075,452.068787 
	C662.688843,450.283508 666.903442,449.136383 671.244568,448.832336 
	C677.227661,448.413269 678.329102,449.453278 678.338379,455.364349 
	C678.369202,474.997314 678.355347,494.630402 678.353760,514.263428 
	C678.352539,530.069580 678.367126,545.875793 678.334351,561.681885 
	C678.263733,595.753418 653.531250,620.752991 619.548767,621.081726 
	C610.558655,621.168701 601.565002,621.007263 592.577332,621.182800 
	C588.270264,621.266846 586.565002,619.432922 586.602295,615.230652 
	C586.686462,605.741333 586.607056,596.250244 586.557129,586.760132 
	C586.527832,581.184509 588.041321,579.636108 593.751099,580.169800 
	C601.244629,580.870056 608.703003,580.753296 616.174316,579.954956 
	C627.187744,578.778137 635.298523,570.603882 636.770264,559.494995 
	C638.091431,549.522888 636.789856,539.563354 636.967529,529.597595 
	C637.210876,515.949524 636.989014,502.293182 636.968750,488.161743 
z"/>
<path fill="#000000" opacity="1.000000" stroke="none" 
	d="
M635.562256,678.699463 
	C627.930603,683.721985 620.166809,684.639587 612.778992,679.729126 
	C605.521606,674.905334 601.675171,667.716797 602.856140,658.775146 
	C604.017456,649.981995 609.477783,644.492859 617.755310,641.758606 
	C626.021912,639.028076 635.629639,642.520081 640.529480,649.912292 
	C645.915771,658.038391 645.379150,668.009521 639.096863,675.385925 
	C638.134155,676.516296 636.941528,677.450745 635.562256,678.699463 
z"/>
<path fill="#000000" opacity="1.000000" stroke="none" 
	d="
M592.265137,675.176941 
	C584.695923,683.054321 575.639648,684.868469 567.203918,680.442200 
	C559.291382,676.290527 554.695862,666.910828 556.335449,658.258972 
	C558.168518,648.585999 565.534119,641.633423 575.514160,640.899963 
	C583.242798,640.332031 589.332092,643.854553 593.747437,650.132385 
	C598.208252,656.474792 599.313354,663.195801 595.421509,670.258362 
	C594.541565,671.855164 593.470947,673.346924 592.265137,675.176941 
z"/>
<path fill="#000000" opacity="1.000000" stroke="none" 
	d="
M516.148926,554.196716 
	C520.548401,553.856934 522.513916,555.593201 522.188904,559.680054 
	C522.149597,560.173767 522.195007,560.674133 522.201233,561.171448 
	C522.355713,573.572144 519.970520,576.054993 507.746521,572.843201 
	C499.980042,570.802612 504.921661,563.244568 503.975433,558.263184 
	C503.251984,554.454590 506.411621,554.335449 509.283691,554.438354 
	C511.427124,554.515137 513.580811,554.306641 516.148926,554.196716 
z"/>
<path fill="#000000" opacity="1.000000" stroke="none" 
	d="
M542.581543,573.077637 
	C541.960999,573.136536 541.795593,573.152344 541.630127,573.151794 
	C525.863525,573.102051 528.001526,574.919800 527.937561,558.306580 
	C527.934021,557.379700 528.208191,555.813293 528.739990,555.622253 
	C533.649597,553.859619 538.874146,554.053284 543.813538,554.827271 
	C547.074768,555.338196 545.881226,559.201172 546.080139,561.696106 
	C546.263733,564.000000 546.102295,566.330750 546.111328,568.649536 
	C546.119812,570.842651 545.511169,572.585754 542.581543,573.077637 
z"/>
<path fill="#000000" opacity="1.000000" stroke="none" 
	d="
M516.768555,597.262634 
	C502.812805,597.208862 504.094727,598.538147 503.710724,584.497803 
	C503.581024,579.756653 505.244049,578.461182 509.706329,578.625916 
	C523.497009,579.135193 522.142578,575.960999 522.178101,592.086487 
	C522.185669,595.537842 520.939270,597.497559 516.768555,597.262634 
z"/>
<path fill="#000000" opacity="1.000000" stroke="none" 
	d="
M544.325073,596.642578 
	C543.271240,596.965637 542.616150,597.164062 541.960815,597.164978 
	C525.765564,597.186523 528.140869,599.325806 527.875977,582.138855 
	C527.841248,579.883423 528.868225,578.729797 531.148865,578.731262 
	C532.313354,578.731995 533.505371,578.546387 534.637268,578.733398 
	C538.252197,579.330688 543.524353,576.658813 545.187134,580.545837 
	C547.254395,585.378540 547.165283,591.193848 544.325073,596.642578 
z"/>
</svg>