<?xml version="1.0" encoding="UTF-8"?>
<svg version="1.1" xmlns="http://www.w3.org/2000/svg" width="1254" height="1254">
<path d="M0 0 C413.82 0 827.64 0 1254 0 C1254 413.82 1254 827.64 1254 1254 C840.18 1254 426.36 1254 0 1254 C0 840.18 0 426.36 0 0 Z " fill="#FEFDFE" transform="translate(0,0)"/>
<path d="M0 0 C0.68645599 -0.00335861 1.37291199 -0.00671722 2.08016968 -0.01017761 C4.36783632 -0.01973271 6.65542982 -0.02163446 8.94311523 -0.02270508 C10.54003428 -0.02591978 12.13695303 -0.02928401 13.73387146 -0.03279114 C17.09749023 -0.0387974 20.46108328 -0.04063003 23.82470703 -0.04003906 C28.09082983 -0.03993855 32.35678198 -0.05346726 36.62286472 -0.07081127 C39.93219218 -0.08206488 43.24148051 -0.08395406 46.55082512 -0.08342934 C48.12015293 -0.08459421 49.68948227 -0.0889299 51.25879097 -0.0967617 C64.70807685 -0.15747799 78.34340932 0.00313072 90.95874023 5.16479492 C93.30320523 6.09150471 95.55460112 6.68445347 98.00170898 7.27026367 C125.2884226 15.27784789 148.95093819 38.88370086 162.38623047 63.19848633 C172.12938943 81.4649897 175.63153131 99.91730708 175.734375 120.38110352 C175.74585371 121.96322604 175.76624012 123.5453111 175.79589844 125.12719727 C176.258846 149.94015216 167.83085477 173.38346568 150.85180664 191.6940918 C136.48265363 206.45562749 119.59188094 212.03856414 99.32681274 212.38577271 C96.79217773 212.39147309 94.25750224 212.3864774 91.72290039 212.37231445 C90.31198637 212.37174848 88.90107176 212.37207052 87.49015808 212.37319946 C83.70799654 212.37376672 79.92596525 212.3621157 76.14383364 212.34805155 C72.17340052 212.33543799 68.20296349 212.3343654 64.23251343 212.33200073 C56.735391 212.32581687 49.23832782 212.30944853 41.74123132 212.28930175 C33.19694216 212.26684569 24.65264998 212.25592506 16.10833859 212.24591088 C-1.44807204 212.22507909 -19.00442524 212.18996416 -36.56079102 212.14526367 C-36.56079102 208.14526367 -36.56079102 208.14526367 -35.27563477 206.50463867 C-34.39584961 205.70799805 -34.39584961 205.70799805 -33.49829102 204.89526367 C-30.92373893 202.46517543 -28.49875626 200.01406998 -26.18579102 197.33276367 C-21.29175912 191.66311511 -16.25213658 186.12561279 -11.23266602 180.56713867 C-10.47469727 179.72666992 -9.71672852 178.88620117 -8.93579102 178.02026367 C-8.26290039 177.27518555 -7.59000977 176.53010742 -6.89672852 175.76245117 C-4.58808088 173.3817556 -4.58808088 173.3817556 -3.50152588 171.1686554 C-1.48003191 167.95220559 0.48772556 165.61350138 4.31676865 164.69476318 C10.30244184 163.97189866 16.33801404 164.20919614 22.35327148 164.32104492 C24.32993933 164.32622913 26.30662251 164.32715154 28.28329468 164.32402039 C33.48367068 164.32390788 38.68265537 164.36709103 43.88269043 164.42382812 C52.18244835 164.51235718 60.4817805 164.55769143 68.78199387 164.56032372 C71.66336725 164.57080874 74.54297804 164.61351287 77.42398071 164.65901184 C90.4075707 164.76352891 101.99784881 163.59060502 111.79858398 154.01635742 C122.83914366 141.42486198 124.20266183 125.74844944 123.61401367 109.7121582 C122.42422635 92.24089578 113.56346736 76.04352925 100.50170898 64.58276367 C96.14010511 61.17451584 91.64903788 58.37855677 86.75170898 55.83276367 C86.16591064 55.51944092 85.5801123 55.20611816 84.9765625 54.88330078 C72.69079506 48.85239881 59.53679776 47.55642634 46.07202148 47.60620117 C44.57508937 47.59626041 43.07816944 47.58430658 41.58126831 47.57046509 C37.69910324 47.53854598 33.81721987 47.52774705 29.93493652 47.52362061 C23.67459381 47.514756 17.4144762 47.47943377 11.15432358 47.43144608 C8.97715396 47.41887516 6.80027586 47.41961478 4.62307739 47.42172241 C3.31346039 47.41476349 2.00384338 47.40780457 0.65454102 47.40063477 C-0.50077118 47.39937592 -1.65608337 47.39811707 -2.84640503 47.39682007 C-5.56079102 47.14526367 -5.56079102 47.14526367 -7.56079102 45.14526367 C-7.80802917 43.24107361 -7.80802917 43.24107361 -7.80371094 40.89501953 C-7.80678757 40.0174852 -7.8098642 39.13995087 -7.81303406 38.23582458 C-7.80584854 37.28683792 -7.79866302 36.33785126 -7.79125977 35.36010742 C-7.79057243 33.90297081 -7.79057243 33.90297081 -7.78987122 32.41639709 C-7.78684725 30.36108175 -7.77895667 28.30576872 -7.76660156 26.25048828 C-7.74834605 23.09228462 -7.74609183 19.93437395 -7.74633789 16.77612305 C-7.74142283 14.78328195 -7.73559457 12.79044286 -7.72875977 10.79760742 C-7.72764694 9.84659653 -7.72653412 8.89558563 -7.72538757 7.91575623 C-7.71900772 7.04137405 -7.71262787 6.16699188 -7.70605469 5.26611328 C-7.70033699 4.1060099 -7.70033699 4.1060099 -7.69450378 2.92247009 C-7.37716179 -1.29539356 -3.3826919 0.01034546 0 0 Z " fill="#313132" transform="translate(868.560791015625,549.854736328125)"/>
<path d="M0 0 C1.20366211 0.00483398 1.20366211 0.00483398 2.43164062 0.00976562 C3.68170898 0.02233398 3.68170898 0.02233398 4.95703125 0.03515625 C5.80201172 0.03966797 6.64699219 0.04417969 7.51757812 0.04882812 C9.6015928 0.06060222 11.68557102 0.07853735 13.76953125 0.09765625 C13.79239549 47.85341699 13.81002839 95.60917715 13.82059658 143.36494228 C13.82184736 148.99663145 13.82314168 154.62832061 13.82446289 160.26000977 C13.8247252 161.38122799 13.82498751 162.50244622 13.82525777 163.65764076 C13.82961494 181.837606 13.83750274 200.01756809 13.84668405 218.19753145 C13.8560193 236.83709063 13.86158659 255.47664815 13.86361974 274.11620957 C13.86499524 285.62765362 13.86934726 297.13908879 13.87744772 308.65053011 C13.88271359 316.53296326 13.88433591 324.41539179 13.88303263 332.29782658 C13.882389 336.85278092 13.88340955 341.40771968 13.88873672 345.96267128 C13.89357012 350.12556665 13.8938703 354.28843581 13.89043014 358.45133234 C13.89000439 359.96412666 13.89130063 361.47692255 13.89441443 362.98971372 C13.89837752 365.03250354 13.895688 367.07530314 13.89257908 369.11809444 C13.89314866 370.82626635 13.89314866 370.82626635 13.89372975 372.56894678 C13.76953125 375.09765625 13.76953125 375.09765625 12.76953125 376.09765625 C11.20954077 376.19612592 9.64512581 376.22564243 8.08203125 376.22705078 C7.08429687 376.23020294 6.0865625 376.2333551 5.05859375 376.23660278 C3.97320313 376.23457855 2.8878125 376.23255432 1.76953125 376.23046875 C0.66351562 376.23142548 -0.4425 376.2323822 -1.58203125 376.23336792 C-3.92578183 376.23404992 -6.26953428 376.23219429 -8.61328125 376.22802734 C-12.21488663 376.22267939 -15.81636728 376.22797172 -19.41796875 376.234375 C-21.68880236 376.23371422 -23.95963589 376.23243307 -26.23046875 376.23046875 C-27.31585938 376.23249298 -28.40125 376.23451721 -29.51953125 376.23660278 C-30.51726562 376.23345062 -31.515 376.23029846 -32.54296875 376.22705078 C-33.42597656 376.22625519 -34.30898438 376.22545959 -35.21875 376.22463989 C-37.23046875 376.09765625 -37.23046875 376.09765625 -38.23046875 375.09765625 C-38.33153943 373.30534055 -38.36155099 371.50899997 -38.36468983 369.71383953 C-38.36914767 368.53837777 -38.37360551 367.36291601 -38.37819844 366.15183419 C-38.37801408 364.843901 -38.37782972 363.5359678 -38.37763977 362.18840027 C-38.38093654 360.79778115 -38.3846617 359.40716299 -38.38878125 358.01654607 C-38.39883171 354.17683783 -38.40252295 350.33714522 -38.40517056 346.49742568 C-38.40906492 342.36288066 -38.4186442 338.22834812 -38.42738342 334.09381104 C-38.44717809 324.0963072 -38.45722031 314.0988023 -38.46611121 304.10128376 C-38.4704914 299.39430215 -38.47585911 294.68732167 -38.48110008 289.98034096 C-38.49811949 274.33254193 -38.51261185 258.68474362 -38.51984882 243.03693676 C-38.52175877 238.97294807 -38.52367909 234.90895938 -38.52563477 230.8449707 C-38.52611851 229.83486552 -38.52660225 228.82476034 -38.52710065 227.78404591 C-38.53539399 211.43510249 -38.56071596 195.08623241 -38.59321544 178.73732098 C-38.62630578 161.95428573 -38.64429959 145.1712877 -38.64749306 128.38821965 C-38.64965692 118.96452342 -38.65838675 109.54093395 -38.68395424 100.11726952 C-38.70568865 92.0876776 -38.71369839 84.05821835 -38.70398746 76.02860036 C-38.69944995 71.93393927 -38.70129653 67.83955173 -38.7207489 63.74492836 C-38.73843413 59.98967667 -38.73733994 56.234897 -38.72185161 52.47963993 C-38.71836929 50.49129043 -38.73446215 48.50293569 -38.75145608 46.51465577 C-38.65424838 32.87360833 -34.68376894 22.19487007 -25.421875 12.1328125 C-18.90186555 5.93812577 -9.19899373 -0.06524109 0 0 Z " fill="#303032" transform="translate(526.23046875,382.90234375)"/>
<path d="M0 0 C1.62156006 0.00338379 1.62156006 0.00338379 3.27587891 0.00683594 C4.10007324 0.00973633 4.92426758 0.01263672 5.7734375 0.015625 C5.86718305 19.55758821 5.93756401 39.09950532 5.98068619 58.64164734 C6.00124728 67.7169042 6.02924333 76.79202075 6.07519531 85.8671875 C6.11526191 93.78385934 6.14091711 101.70042947 6.14979148 109.6171999 C6.15497294 113.80298274 6.16701387 117.98847484 6.19635773 122.17416382 C6.22384155 126.12717659 6.23181728 130.07978344 6.22586823 134.03288269 C6.22695394 135.47103596 6.23470937 136.90920517 6.2502594 138.34727478 C6.52632231 165.23402534 -4.96483176 187.24252248 -23.40625 206.34765625 C-27.82675554 210.84203856 -32.28546701 215.23126675 -37.06640625 219.34375 C-41.68225897 223.34448669 -45.94600732 227.66202281 -50.2265625 232.015625 C-55.07296654 236.94473218 -59.95653869 241.70534711 -65.19921875 246.2109375 C-69.04654307 249.63572331 -72.61670935 253.34417026 -76.2265625 257.015625 C-80.97368077 261.84375211 -85.70438189 266.56875049 -90.92401123 270.88787842 C-93.36112266 273.04783481 -93.36112266 273.04783481 -95.68096924 275.95953369 C-100.05572061 281.1467967 -103.87295643 285.50782851 -110.97797775 286.292202 C-114.56892708 286.4433525 -118.12194709 286.34191264 -121.7109375 286.1875 C-123.26313651 286.16506165 -124.8154217 286.14800697 -126.36773682 286.13604736 C-130.4142565 286.09066159 -134.45543907 285.97321716 -138.49987793 285.83959961 C-142.64241333 285.7158687 -146.78582904 285.66183337 -150.9296875 285.6015625 C-159.03107024 285.47363845 -167.12814899 285.26941378 -175.2265625 285.015625 C-174.37851377 280.66126063 -172.03220905 278.4192741 -168.94140625 275.40234375 C-168.40689346 274.86970413 -167.87238068 274.33706451 -167.32167053 273.7882843 C-166.18774627 272.66107861 -165.0502318 271.53747472 -163.90942383 270.41723633 C-162.18781863 268.72645578 -160.47679863 267.02555562 -158.76757812 265.32226562 C-157.659467 264.22334004 -156.55076062 263.12501429 -155.44140625 262.02734375 C-154.93898911 261.52917648 -154.43657196 261.03100922 -153.91893005 260.51774597 C-151.2037952 257.85513068 -148.42800594 255.31077135 -145.53930664 252.8371582 C-140.64996872 248.59272439 -136.10722263 244.00926693 -131.55064392 239.41487122 C-129.97083117 237.82209009 -128.38773664 236.23263343 -126.80383301 234.6439209 C-123.44189389 231.27065187 -120.08392431 227.89344898 -116.7265625 224.515625 C-112.83058901 220.59590665 -108.93292712 216.67789758 -105.0309906 212.76411438 C-103.48474695 211.21147262 -101.9415887 209.65581097 -100.39855957 208.09997559 C-95.72552515 203.40274208 -91.00273086 198.83036345 -85.96859741 194.5194397 C-81.75075402 190.87837898 -77.82466796 186.91819141 -73.86352539 183.00268555 C-72.82104404 181.9766925 -71.77323715 180.95608028 -70.7199707 179.94116211 C-56.90970442 166.62743502 -47.38729593 152.82222871 -46.78791714 133.01669216 C-46.726631 128.89114304 -46.718802 124.76772779 -46.7407074 120.64181137 C-46.75816728 117.25141973 -46.75035569 113.8618659 -46.7364502 110.47146606 C-46.71127114 103.27779328 -46.71658561 96.08432381 -46.7265625 88.890625 C-46.73813306 80.53890871 -46.7367908 72.18760608 -46.70249939 63.83594131 C-46.69545928 60.51456168 -46.71200943 57.19385452 -46.72961426 53.87252808 C-46.7277744 37.761636 -44.87477406 25.80175914 -33.8515625 13.328125 C-23.48824985 4.19854005 -13.98702073 -0.03785391 0 0 Z " fill="#303132" transform="translate(438.2265625,549.984375)"/>
<path d="M0 0 C0.68384766 0.00902344 1.36769531 0.01804687 2.07226562 0.02734375 C3.73583287 0.05061042 5.39921631 0.08646833 7.0625 0.125 C7.15623106 19.03231342 7.22661947 37.93957923 7.26974869 56.84707737 C7.29031283 65.62754173 7.31831478 74.40786114 7.36425781 83.18823242 C7.404315 90.84743207 7.42997741 98.50652667 7.43885398 106.16582817 C7.44403702 110.21576737 7.45608821 114.26540622 7.48542023 118.31524849 C7.51288909 122.13939994 7.52088271 125.96313184 7.51493073 129.78737259 C7.51601709 131.17918249 7.52378173 132.57100875 7.5393219 133.96273232 C7.6760431 146.85666958 5.36670302 159.02676669 -0.75 170.5 C-1.09474365 171.16572021 -1.4394873 171.83144043 -1.79467773 172.51733398 C-4.63430427 177.85734252 -7.87374522 182.63052467 -11.9375 187.125 C-12.45570313 187.723125 -12.97390625 188.32125 -13.5078125 188.9375 C-23.54153968 199.79525308 -39.44585356 208.62957691 -54.42636108 209.22370911 C-57.48777594 209.27385447 -60.5475489 209.28980896 -63.609375 209.29296875 C-64.72814026 209.29629715 -65.84690552 209.29962555 -66.99957275 209.30305481 C-69.35631907 209.30810466 -71.7130725 209.31046374 -74.06982422 209.31030273 C-77.68859418 209.31250066 -81.30706472 209.3307082 -84.92578125 209.34960938 C-87.21614479 209.35254133 -89.50650978 209.35452745 -91.796875 209.35546875 C-92.88329285 209.36265427 -93.96971069 209.36983978 -95.08905029 209.37724304 C-96.09059143 209.37416641 -97.09213257 209.37108978 -98.12402344 209.36791992 C-99.44923004 209.37005745 -99.44923004 209.37005745 -100.8012085 209.37223816 C-102.9375 209.125 -102.9375 209.125 -104.9375 207.125 C-105.19146729 205.1895752 -105.19146729 205.1895752 -105.19628906 202.79882812 C-105.20259338 201.90450073 -105.20889771 201.01017334 -105.21539307 200.08874512 C-105.2113446 199.12102173 -105.20729614 198.15329834 -105.203125 197.15625 C-105.20503845 196.16500122 -105.2069519 195.17375244 -105.20892334 194.15246582 C-105.21028585 192.05427802 -105.20658482 189.95608181 -105.19824219 187.85791016 C-105.18754371 184.63815454 -105.19813536 181.41895692 -105.2109375 178.19921875 C-105.20961592 176.16406126 -105.20705355 174.12890412 -105.203125 172.09375 C-105.20919769 170.64216492 -105.20919769 170.64216492 -105.21539307 169.16125488 C-105.20908875 168.26692749 -105.20278442 167.3726001 -105.19628906 166.45117188 C-105.19469788 165.66222534 -105.19310669 164.87327881 -105.19146729 164.0604248 C-104.9375 162.125 -104.9375 162.125 -102.9375 160.125 C-100.2112009 159.95203352 -97.57739023 159.89656998 -94.8515625 159.921875 C-93.18098189 159.91131023 -91.51040848 159.89955095 -89.83984375 159.88671875 C-87.21563077 159.87648505 -84.59242549 159.87476907 -81.96826172 159.89501953 C-71.15813378 159.95879003 -62.0653632 159.75590308 -52.9375 153.125 C-46.20011263 146.45454572 -43.61597515 138.17500668 -43.55632019 128.81460571 C-43.5656105 127.93388397 -43.57490082 127.05316223 -43.58447266 126.14575195 C-43.58231247 125.19156876 -43.58015228 124.23738556 -43.57792664 123.25428772 C-43.57485581 121.19677502 -43.57839742 119.13924373 -43.58794022 117.08175087 C-43.60177487 113.81310504 -43.595183 110.5450599 -43.58309937 107.27641296 C-43.55227943 97.98802643 -43.55693903 88.69978268 -43.57714844 79.41137695 C-43.58813071 73.71442499 -43.57473795 68.0179248 -43.54725266 62.32103539 C-43.54185033 60.16393497 -43.54577705 58.00678829 -43.55965042 55.84972572 C-43.66270356 39.63545363 -42.79443148 25.47392034 -30.9375 13.125 C-22.1497272 4.26664268 -12.66745692 -0.22420278 0 0 Z " fill="#A0917B" transform="translate(821.9375,549.875)"/>
<path d="M0 0 C3.41712104 2.91250605 6.71146359 5.94383329 10 9 C11.70537923 10.54493384 13.41368142 12.08664777 15.125 13.625 C15.95257812 14.37007812 16.78015625 15.11515625 17.6328125 15.8828125 C20.38118628 18.34092899 23.15705224 20.7658197 25.9375 23.1875 C29.1751333 26.0326929 32.3668629 28.92853836 35.56640625 31.81640625 C37.67511146 33.70848685 39.79919801 35.57905758 41.9375 37.4375 C46.13164365 41.08937053 50.23094292 44.84266184 54.33984375 48.58984375 C57.19027034 51.17238884 60.07825892 53.70655103 62.98046875 56.23046875 C66.15933524 59.01581985 69.29456105 61.84878276 72.42578125 64.6875 C74.1155429 66.20546494 75.82096759 67.70620868 77.54296875 69.1875 C88.76060759 78.92684535 98.93710538 90.5157147 101.640625 105.56640625 C101.97065615 112.03951713 101.04691065 116.38760562 96.8984375 121.4140625 C91.11740161 126.24348754 85.21480912 126.99632247 77.8828125 126.8671875 C71.12381634 125.35763303 67.74669835 120.65158239 63.40429688 115.55566406 C61.31398265 113.2400378 58.94890515 111.36163976 56.5 109.4375 C52.51003908 106.26731554 48.72455397 102.97146379 45 99.5 C41.29166676 96.04809089 37.51491886 92.73476071 33.5625 89.5625 C28.78378372 85.71889943 24.30842313 81.63039836 19.83618164 77.44165039 C15.64936637 73.54251204 11.28453772 69.93075182 6.8203125 66.3515625 C3.56207502 63.63486034 0.46907499 60.77538706 -2.625 57.875 C-12.09604595 48.07228634 -12.09604595 48.07228634 -24.25 43.6875 C-24.99765625 43.65011719 -25.7453125 43.61273437 -26.515625 43.57421875 C-32.32288923 44.56948888 -36.55332569 49.27892865 -40.6875 53.1875 C-44.47847427 56.73336309 -48.31679357 60.13203149 -52.375 63.375 C-56.76806489 66.90717609 -60.89917058 70.6389592 -65 74.5 C-69.93519312 79.14661659 -74.99475404 83.51926057 -80.2890625 87.7578125 C-83.28905106 90.23907105 -86.1514229 92.84875858 -89 95.5 C-94.46901665 100.58622092 -100.17190411 105.32812314 -106 110 C-110.05378545 113.02212418 -110.05378545 113.02212418 -113 117 C-113.66 117 -114.32 117 -115 117 C-115.3032783 109.64620209 -115.53319554 102.29378214 -115.67355824 94.93496323 C-115.74098854 91.51622143 -115.83213088 88.10180041 -115.98071289 84.68554688 C-116.9938759 60.77794703 -116.9938759 60.77794703 -112.18676758 54.5859375 C-109.12009916 51.45862976 -105.74385387 49.24756922 -102 47 C-100.65943793 45.86568933 -99.33747776 44.70755914 -98.0625 43.5 C-95.68748062 41.43866242 -93.29370056 39.40028469 -90.89453125 37.3671875 C-84.06153271 31.56430866 -77.38163275 25.64253701 -70.83837891 19.51416016 C-67.25735103 16.16069263 -63.63908633 12.86979104 -59.9140625 9.67578125 C-58.46743147 8.40924102 -57.05040933 7.10877288 -55.6484375 5.79296875 C-39.00568316 -9.74198615 -19.04761233 -14.99631914 0 0 Z " fill="#A0917A" transform="translate(666,572)"/>
<path d="M0 0 C5.61605514 3.37172084 11.22612204 7.74180514 13.1015625 14.26171875 C14.04968105 22.19550321 14.21382345 29.58883093 9.6484375 36.3984375 C4.44225505 42.66952091 -1.1462494 46.41164169 -9.27734375 47.61328125 C-16.83056936 48.06245586 -23.09148411 45.63588165 -28.75390625 40.6171875 C-35.16986175 33.59924111 -36.58851526 27.10341741 -36.37890625 17.7109375 C-35.45900127 11.10706675 -31.76417242 6.77565847 -26.9609375 2.38671875 C-18.19757662 -3.69398064 -9.58928765 -4.82852823 0 0 Z " fill="#A2937D" transform="translate(772.8984375,787.73828125)"/>
<path d="M0 0 C4.74038687 3.76956963 8.20048803 7.64204973 9.625 13.625 C10.63690564 22.73215078 10.33185438 29.20418261 5 37 C0.38013198 42.32630415 -5.20180713 45.29591735 -12.15625 46.31640625 C-19.35929434 46.70953015 -25.93149634 44.7457729 -31.33984375 39.90625 C-38.08914315 32.58332117 -39.74878209 26.6887068 -39.4453125 16.7421875 C-38.79104884 11.24407709 -36.75559258 7.96232245 -33 4 C-32.52046875 3.48953125 -32.0409375 2.9790625 -31.546875 2.453125 C-22.44612446 -6.04757605 -10.41573755 -5.89537621 0 0 Z " fill="#A2937D" transform="translate(719,789)"/>
<path d="M0 0 C6.93 0 13.86 0 21 0 C21 7.26 21 14.52 21 22 C17.720625 22.020625 14.44125 22.04125 11.0625 22.0625 C10.02746338 22.071604 8.99242676 22.08070801 7.92602539 22.09008789 C7.11641357 22.09258545 6.30680176 22.09508301 5.47265625 22.09765625 C4.22367554 22.10551147 4.22367554 22.10551147 2.94946289 22.11352539 C1 22 1 22 0 21 C-0.08685603 19.43827255 -0.10702219 17.87270656 -0.09765625 16.30859375 C-0.09515869 15.45837646 -0.09266113 14.60815918 -0.09008789 13.73217773 C-0.08098389 12.64493408 -0.07187988 11.55769043 -0.0625 10.4375 C-0.041875 6.993125 -0.02125 3.54875 0 0 Z " fill="#A1917B" transform="translate(616,708)"/>
<path d="M0 0 C0.83265381 0.00523682 1.66530762 0.01047363 2.52319336 0.01586914 C3.33280518 0.0183667 4.14241699 0.02086426 4.9765625 0.0234375 C6.01159912 0.0325415 7.04663574 0.04164551 8.11303711 0.05102539 C11.39241211 0.07165039 14.67178711 0.09227539 18.05053711 0.11352539 C18.05053711 7.37352539 18.05053711 14.63352539 18.05053711 22.11352539 C14.77116211 22.13415039 11.49178711 22.15477539 8.11303711 22.17602539 C7.07800049 22.18512939 6.04296387 22.1942334 4.9765625 22.20361328 C4.16695068 22.20611084 3.35733887 22.2086084 2.52319336 22.21118164 C1.27421265 22.21903687 1.27421265 22.21903687 0 22.22705078 C-1.94946289 22.11352539 -1.94946289 22.11352539 -2.94946289 21.11352539 C-3.04827086 19.63699875 -3.08025535 18.15585303 -3.08227539 16.67602539 C-3.08356445 15.78141602 -3.08485352 14.88680664 -3.08618164 13.96508789 C-3.08038086 12.55356445 -3.08038086 12.55356445 -3.07446289 11.11352539 C-3.07833008 10.17250977 -3.08219727 9.23149414 -3.08618164 8.26196289 C-3.08489258 7.36735352 -3.08360352 6.47274414 -3.08227539 5.55102539 C-3.0805835 4.3115918 -3.0805835 4.3115918 -3.07885742 3.04711914 C-2.90250169 0.41176559 -2.63789571 0.15361572 0 0 Z " fill="#A1917C" transform="translate(647.949462890625,707.886474609375)"/>
<path d="M0 0 C6.93 0 13.86 0 21 0 C21 6.93 21 13.86 21 21 C14.07 21 7.14 21 0 21 C0 14.07 0 7.14 0 0 Z " fill="#A3947F" transform="translate(645,679)"/>
<path d="M0 0 C6.93 0 13.86 0 21 0 C21 6.93 21 13.86 21 21 C17.720625 21.020625 14.44125 21.04125 11.0625 21.0625 C10.02746338 21.071604 8.99242676 21.08070801 7.92602539 21.09008789 C7.11641357 21.09258545 6.30680176 21.09508301 5.47265625 21.09765625 C4.22367554 21.10551147 4.22367554 21.10551147 2.94946289 21.11352539 C1 21 1 21 0 20 C-0.08669432 18.5112814 -0.10703494 17.018555 -0.09765625 15.52734375 C-0.09515869 14.71773193 -0.09266113 13.90812012 -0.09008789 13.07397461 C-0.08098389 12.03893799 -0.07187988 11.00390137 -0.0625 9.9375 C-0.0315625 5.0184375 -0.0315625 5.0184375 0 0 Z " fill="#A0917C" transform="translate(616,679)"/>
<path d="M0 0 C3.3 0 6.6 0 10 0 C10 0.33 10 0.66 10 1 C7.36 1 4.72 1 2 1 C2 6.94 2 12.88 2 19 C7.94 19 13.88 19 20 19 C20 14.05 20 9.1 20 4 C20.33 4 20.66 4 21 4 C21 9.61 21 15.22 21 21 C17.68744674 21.02683436 14.37510817 21.0467578 11.0625 21.0625 C10.11697266 21.07087891 9.17144531 21.07925781 8.19726562 21.08789062 C6.84858398 21.09272461 6.84858398 21.09272461 5.47265625 21.09765625 C4.22367554 21.10551147 4.22367554 21.10551147 2.94946289 21.11352539 C1 21 1 21 0 20 C-0.08669432 18.5112814 -0.10703494 17.018555 -0.09765625 15.52734375 C-0.09443359 14.62822266 -0.09121094 13.72910156 -0.08789062 12.80273438 C-0.07951172 11.85720703 -0.07113281 10.91167969 -0.0625 9.9375 C-0.05798828 8.98810547 -0.05347656 8.03871094 -0.04882812 7.06054688 C-0.03700128 4.70700469 -0.01906521 2.35349468 0 0 Z " fill="#A49784" transform="translate(645,709)"/>
<path d="M0 0 C6.93 0 13.86 0 21 0 C21 0.33 21 0.66 21 1 C14.4 1 7.8 1 1 1 C1.33 7.27 1.66 13.54 2 20 C7.94 20 13.88 20 20 20 C20 16.04 20 12.08 20 8 C20.33 8 20.66 8 21 8 C21 12.62 21 17.24 21 22 C17.68744674 22.02683436 14.37510817 22.0467578 11.0625 22.0625 C10.11697266 22.07087891 9.17144531 22.07925781 8.19726562 22.08789062 C6.84858398 22.09272461 6.84858398 22.09272461 5.47265625 22.09765625 C4.22367554 22.10551147 4.22367554 22.10551147 2.94946289 22.11352539 C1 22 1 22 0 21 C-0.08685603 19.43827255 -0.10702219 17.87270656 -0.09765625 16.30859375 C-0.09515869 15.45837646 -0.09266113 14.60815918 -0.09008789 13.73217773 C-0.08098389 12.64493408 -0.07187988 11.55769043 -0.0625 10.4375 C-0.041875 6.993125 -0.02125 3.54875 0 0 Z " fill="#ADA292" transform="translate(616,708)"/>
<path d="M0 0 C0.8494368 -0.00087616 1.6988736 -0.00175232 2.5740509 -0.00265503 C5.36688922 0.00150753 8.15729118 0.04809406 10.94970703 0.09521484 C12.89167977 0.10641178 14.83366951 0.11494962 16.77566528 0.12094116 C21.87572395 0.14380033 26.97474993 0.20269861 32.07440186 0.26916504 C37.28269482 0.33065035 42.4911554 0.35796953 47.69970703 0.38818359 C57.91109712 0.45244454 68.1217223 0.55478889 78.33251953 0.68115234 C78.33251953 1.01115234 78.33251953 1.34115234 78.33251953 1.68115234 C77.26620804 1.68035675 76.19989655 1.67956116 75.10127258 1.67874146 C65.05147575 1.6751389 55.00219039 1.70292431 44.95255756 1.76143074 C39.78587617 1.79050134 34.61964909 1.8085172 29.45288086 1.80126953 C24.46641201 1.7946815 19.48084133 1.8171314 14.49455833 1.85970688 C12.59241114 1.87084748 10.69017296 1.87152965 8.78801918 1.86157608 C6.12257621 1.8494162 3.45988017 1.87445789 0.79467773 1.90820312 C0.0084906 1.89598221 -0.77769653 1.88376129 -1.58770752 1.87117004 C-4.58891328 1.93962611 -6.95734511 2.07788887 -9.30036354 4.06829453 C-10.87611065 5.88158597 -10.87611065 5.88158597 -12.66748047 8.68115234 C-13.32748047 8.02115234 -13.98748047 7.36115234 -14.66748047 6.68115234 C-9.97924591 1.04098844 -7.23262419 -0.19700882 0 0 Z " fill="#434445" transform="translate(879.66748046875,714.31884765625)"/>
<path d="M0 0 C0 6.28030491 -7.18006182 11.21842034 -11.42651367 15.49023438 C-13.60806651 17.67002477 -15.80151187 19.83729197 -18 22 C-17.34 22.66 -16.68 23.32 -16 24 C-17.65 24 -19.3 24 -21 24 C-20.47113167 19.91664456 -18.40370962 18.05646982 -15.52734375 15.234375 C-14.62822266 14.34492187 -13.72910156 13.45546875 -12.80273438 12.5390625 C-11.85720703 11.61867188 -10.91167969 10.69828125 -9.9375 9.75 C-8.97783027 8.80538327 -8.01883771 7.86007805 -7.06054688 6.9140625 C-4.71361172 4.60250828 -2.35996609 2.2982366 0 0 Z " fill="#404041" transform="translate(284,811)"/>
<path d="M0 0 C6.875 5.875 6.875 5.875 8 7 C10.52596259 7.23653523 13.03107207 7.42173692 15.5625 7.5625 C16.62887695 7.62727539 16.62887695 7.62727539 17.71679688 7.69335938 C19.47761912 7.79971777 21.2387832 7.90038846 23 8 C23 8.33 23 8.66 23 9 C15.74 9 8.48 9 1 9 C0.67 6.03 0.34 3.06 0 0 Z " fill="#DFDBD2" transform="translate(732,690)"/>
<path d="M0 0 C0.99 0.33 1.98 0.66 3 1 C-0.38325977 5.13897071 -3.66986277 8.80937256 -8 12 C-8.763125 12.5775 -9.52625 13.155 -10.3125 13.75 C-11.1478125 14.36875 -11.1478125 14.36875 -12 15 C-12 12 -12 12 -9.375 9.08203125 C-8.25750594 7.98449244 -7.13214357 6.89492105 -6 5.8125 C-5.42765625 5.25369141 -4.8553125 4.69488281 -4.265625 4.11914062 C-2.85037212 2.73926907 -1.42602845 1.36873266 0 0 Z " fill="#434445" transform="translate(346,750)"/>
<path d="M0 0 C0.99 0.33 1.98 0.66 3 1 C-0.49359465 4.59634744 -4.11098131 7.83451967 -8 11 C-9.32 10.34 -10.64 9.68 -12 9 C-11.38511719 8.60167969 -10.77023437 8.20335937 -10.13671875 7.79296875 C-9.32847656 7.26316406 -8.52023437 6.73335937 -7.6875 6.1875 C-6.88699219 5.66542969 -6.08648438 5.14335938 -5.26171875 4.60546875 C-3.2762598 3.19610151 -1.6508148 1.77903343 0 0 Z " fill="#3F4040" transform="translate(982,702)"/>
<path d="M0 0 C0 0.66 0 1.32 0 2 C-4.92984325 4.03993514 -8.57960425 5.40652968 -14 5 C-9.67612562 1.34133706 -5.65076098 0 0 0 Z " fill="#434445" transform="translate(429,551)"/>
<path d="M0 0 C0.66 0.66 1.32 1.32 2 2 C1.69670231 5.84177074 0.47524576 8.09427672 -2 11 C-3.13643966 7.59068103 -2.86747764 6.99664544 -1.5625 3.8125 C-1.13130859 2.73935547 -1.13130859 2.73935547 -0.69140625 1.64453125 C-0.46324219 1.10183594 -0.23507812 0.55914063 0 0 Z " fill="#434344" transform="translate(990,686)"/>
<path d="M0 0 C0 3.77910478 -0.99703962 4.46106101 -3.5 7.1875 C-4.1496875 7.90292969 -4.799375 8.61835937 -5.46875 9.35546875 C-5.9740625 9.89816406 -6.479375 10.44085937 -7 11 C-7.99 10.67 -8.98 10.34 -10 10 C-6.7 6.7 -3.4 3.4 0 0 Z " fill="#4B4B4C" transform="translate(284,811)"/>
<path d="M0 0 C2.475 0.495 2.475 0.495 5 1 C4.01 1.66 3.02 2.32 2 3 C1.61588725 5.609621 1.39706803 8.0058074 1.3125 10.625 C1.27833984 11.33140625 1.24417969 12.0378125 1.20898438 12.765625 C1.12648692 14.50985688 1.06156665 16.25490395 1 18 C0.67 18 0.34 18 0 18 C0 12.06 0 6.12 0 0 Z " fill="#998A73" transform="translate(646,679)"/>
<path d="M0 0 C1.16959987 0.97566112 2.33561177 1.955625 3.5 2.9375 C4.1496875 3.48277344 4.799375 4.02804687 5.46875 4.58984375 C5.9740625 5.05519531 6.479375 5.52054688 7 6 C7 6.33 7 6.66 7 7 C5.02 7 3.04 7 1 7 C0.67 4.69 0.34 2.38 0 0 Z " fill="#C5BBAB" transform="translate(733,691)"/>
<path d="M0 0 C-1.49097658 3.7952131 -3.75700849 5.61042731 -7 8 C-7 5 -7 5 -4.625 2.3125 C-2 0 -2 0 0 0 Z " fill="#4E4D4F" transform="translate(411,758)"/>
<path d="M0 0 C0.66 0.66 1.32 1.32 2 2 C0.90716423 3.03295436 -0.19970579 4.05107835 -1.3125 5.0625 C-1.92738281 5.63097656 -2.54226563 6.19945312 -3.17578125 6.78515625 C-3.77777344 7.18605469 -4.37976563 7.58695313 -5 8 C-5.99 7.67 -6.98 7.34 -8 7 C-5.36 4.69 -2.72 2.38 0 0 Z " fill="#A69986" transform="translate(598,589)"/>
<path d="M0 0 C0.66 0.66 1.32 1.32 2 2 C0.35 4.31 -1.3 6.62 -3 9 C-3.66 8.67 -4.32 8.34 -5 8 C-3.62845496 5.04590299 -2.01136276 2.55991624 0 0 Z " fill="#404142" transform="translate(405,562)"/>
<path d="M0 0 C0.66 0.99 1.32 1.98 2 3 C1.67 3.33 1.34 3.66 1 4 C0.76572222 6.01594582 0.58663876 8.038474 0.4375 10.0625 C0.35371094 11.16722656 0.26992188 12.27195312 0.18359375 13.41015625 C0.12300781 14.26480469 0.06242188 15.11945312 0 16 C-0.33 16 -0.66 16 -1 16 C-1.02692484 13.70839681 -1.04636124 11.41670454 -1.0625 9.125 C-1.07410156 7.84882812 -1.08570313 6.57265625 -1.09765625 5.2578125 C-1 2 -1 2 0 0 Z " fill="#B4AA9A" transform="translate(738,800)"/>
<path d="M0 0 C0.33 0.99 0.66 1.98 1 3 C-1.97 5.475 -1.97 5.475 -5 8 C-5 5 -5 5 -2.5 2.3125 C-1.675 1.549375 -0.85 0.78625 0 0 Z " fill="#3B3B3C" transform="translate(324,772)"/>
<path d="M0 0 C0.99 0.33 1.98 0.66 3 1 C-0.465 3.97 -0.465 3.97 -4 7 C-4 4 -4 4 -2 1.8125 C-1.34 1.214375 -0.68 0.61625 0 0 Z " fill="#3F4041" transform="translate(845,744)"/>
<path d="M0 0 C0.556875 0.268125 1.11375 0.53625 1.6875 0.8125 C0.945 1.225 0.2025 1.6375 -0.5625 2.0625 C-3.21421685 3.74995618 -5.17924014 5.52122089 -7.3125 7.8125 C-7.3125 4.8125 -7.3125 4.8125 -5.0625 2.0625 C-2.3125 -0.1875 -2.3125 -0.1875 0 0 Z " fill="#4D4D4F" transform="translate(873.3125,715.1875)"/>
<path d="M0 0 C0.66 0.66 1.32 1.32 2 2 C-1.75 5 -1.75 5 -4 5 C-4.33 5.66 -4.66 6.32 -5 7 C-5 6.01 -5 5.02 -5 4 C-2.5 1.8125 -2.5 1.8125 0 0 Z " fill="#393A3A" transform="translate(507,390)"/>
</svg>
