<svg version="1.1" id="Layer_1" xmlns="http://www.w3.org/2000/svg" xmlns:xlink="http://www.w3.org/1999/xlink" x="0px" y="0px"
	 width="100%" viewBox="0 0 1024 1024" enable-background="new 0 0 1024 1024" xml:space="preserve">
<path fill="#000000" opacity="1.000000" stroke="none" 
	d="
M833.485962,606.484863 
	C821.950989,618.036987 808.403748,623.521851 792.357300,623.433777 
	C760.533936,623.258972 728.708984,623.376221 696.884644,623.417542 
	C692.558838,623.423157 688.234009,623.749329 683.907349,623.795776 
	C682.459839,623.811340 680.773743,623.830566 680.047241,622.128174 
	C679.433105,620.689270 680.250244,619.496094 681.145020,618.510254 
	C690.994995,607.658569 700.855957,596.816711 710.768677,586.022400 
	C712.877441,583.726135 715.780518,583.714905 718.666504,583.717651 
	C738.494202,583.736450 758.338318,583.210571 778.145081,583.850342 
	C798.076233,584.494141 807.870850,570.863770 810.566650,556.254150 
	C816.917908,521.834778 793.480835,491.932800 758.485168,489.019806 
	C742.813477,487.715302 727.188477,489.294800 711.541199,488.978455 
	C704.796692,488.842072 703.716003,487.996399 703.695068,481.216644 
	C703.667847,472.385895 703.768311,463.553802 703.642151,454.724731 
	C703.585632,450.772491 705.209839,448.687897 709.192261,448.780365 
	C727.996521,449.216980 746.816406,447.855194 765.614319,449.621582 
	C813.267029,454.099335 850.885986,492.431305 854.464233,540.158691 
	C856.099792,561.973938 852.152466,582.260010 838.949463,600.179199 
	C837.374634,602.316467 835.481506,604.219238 833.485962,606.484863 
z"/>
<path fill="#000000" opacity="1.000000" stroke="none" 
	d="
M419.464752,316.250916 
	C424.818268,313.608643 430.206268,312.665649 435.707611,312.157410 
	C441.385803,311.632843 442.396606,312.532379 442.395599,318.321075 
	C442.382385,394.612671 442.361115,470.904266 442.348969,547.195862 
	C442.345978,566.018921 442.339172,584.842163 442.405579,603.664978 
	C442.417877,607.153137 442.793121,610.639099 442.964569,614.127808 
	C443.217285,619.269165 441.516876,621.225098 436.407715,621.268188 
	C426.413879,621.352356 416.418732,621.323242 406.424316,621.290833 
	C400.318604,621.270996 398.806183,619.754639 398.799103,613.558838 
	C398.772522,590.238220 398.782043,566.917603 398.787506,543.596985 
	C398.802460,479.631805 398.728210,415.666321 398.908386,351.701599 
	C398.951660,336.341431 404.827972,323.847626 419.464752,316.250916 
z"/>
<path fill="#000000" opacity="1.000000" stroke="none" 
	d="
M364.226685,514.000000 
	C364.250061,530.988464 364.223694,547.477112 364.311279,563.965271 
	C364.411530,582.841309 358.279114,599.423462 344.979004,612.752563 
	C322.397308,635.383423 299.347137,657.546936 276.497589,679.910645 
	C274.136932,682.221069 271.479309,683.386963 268.020630,683.356934 
	C252.366104,683.220947 236.709656,683.322876 221.054047,683.281189 
	C219.317017,683.276550 217.025879,683.939209 216.199997,681.763123 
	C215.402786,679.662598 217.430130,678.501343 218.676315,677.263489 
	C245.137650,650.979004 271.623688,624.719421 298.105927,598.455994 
	C301.535004,595.055237 304.986969,591.677307 308.398376,588.258911 
	C316.440430,580.200317 320.498962,570.311951 320.612488,559.081909 
	C320.853302,535.267578 320.648499,511.449127 320.714111,487.632568 
	C320.774261,465.780273 334.461060,450.918732 356.305176,448.827454 
	C363.002960,448.186249 364.246155,449.279175 364.249969,456.040344 
	C364.260773,475.193573 364.237244,494.346771 364.226685,514.000000 
z"/>
<path fill="#000000" opacity="1.000000" stroke="none" 
	d="
M593.092346,509.891479 
	C601.837341,518.121399 611.017517,525.383789 618.647583,534.264709 
	C622.950806,539.273499 625.946594,545.010010 627.606262,551.388550 
	C630.520142,562.587891 623.550537,571.503784 612.023315,571.275879 
	C608.880005,571.213745 605.746460,570.659607 602.608154,570.334534 
	C601.593750,570.229370 600.333252,570.098450 600.151794,569.002258 
	C598.808044,560.883728 591.492432,557.958618 586.327637,553.335083 
	C569.082458,537.897034 551.496216,522.840759 534.146362,507.518494 
	C528.039490,502.125305 523.182678,501.490601 516.926147,506.889313 
	C497.635162,523.535278 478.550873,540.420715 459.372772,557.197693 
	C457.277893,559.030273 455.465576,561.311768 452.596039,561.937134 
	C450.451874,560.990723 450.891968,559.134583 450.883362,557.567261 
	C450.816498,545.401733 450.867218,533.235352 450.749481,521.070496 
	C450.716370,517.648621 451.828705,514.936462 454.360840,512.682190 
	C471.530518,497.396271 488.459564,481.830139 505.917786,466.881775 
	C517.389282,457.059509 534.066345,457.583893 545.405762,467.499207 
	C561.327026,481.421021 577.034790,495.586945 593.092346,509.891479 
z"/>
<path fill="#000000" opacity="1.000000" stroke="none" 
	d="
M637.144897,482.502258 
	C640.055298,462.709717 651.396423,451.581482 670.921326,448.994568 
	C676.922058,448.199524 678.317261,449.396423 678.318176,455.539185 
	C678.323486,491.675873 678.617981,527.816101 678.202332,563.948181 
	C677.863892,593.365417 655.223206,618.279175 626.711182,620.530090 
	C615.045471,621.450989 603.425110,620.893921 591.790588,621.264465 
	C587.995117,621.385376 586.154114,619.172424 586.097168,615.757751 
	C585.927734,605.603149 585.961609,595.444031 586.023987,585.287292 
	C586.050598,580.957397 588.840088,579.672546 592.692383,579.701599 
	C599.683533,579.754333 606.702515,579.354858 613.660522,579.844666 
	C626.149353,580.723877 636.593872,570.144409 636.703369,556.870911 
	C636.880615,535.392273 636.794128,513.911499 636.842468,492.431702 
	C636.849548,489.270508 636.985779,486.109619 637.144897,482.502258 
z"/>
<path fill="#000000" opacity="1.000000" stroke="none" 
	d="
M603.588318,668.308228 
	C599.984070,657.187622 606.474304,646.181763 615.048462,642.728149 
	C625.418701,638.551025 636.125305,641.926575 641.266479,651.351135 
	C646.477234,660.903198 643.920593,672.743652 635.302979,678.969238 
	C624.309448,686.911255 610.915588,682.541016 603.588318,668.308228 
z"/>
<path fill="#000000" opacity="1.000000" stroke="none" 
	d="
M597.187378,658.463013 
	C598.074524,665.250305 596.000122,670.637878 591.958923,675.480225 
	C586.615234,681.883179 577.532593,684.313110 569.291748,681.372559 
	C561.573425,678.618469 555.680115,669.987793 555.761353,661.557373 
	C555.842712,653.105591 561.172058,645.390198 568.822021,642.649231 
	C581.849792,637.981384 592.908264,643.990967 597.187378,658.463013 
z"/>
<path fill="#000000" opacity="1.000000" stroke="none" 
	d="
M503.771637,568.668091 
	C503.743256,565.385681 503.837982,562.563293 503.703003,559.752014 
	C503.514343,555.822083 505.108459,554.087952 509.197266,553.956909 
	C522.367798,553.534668 522.364441,553.431335 522.313965,566.560303 
	C522.290527,572.662781 521.887146,573.090698 515.884705,573.168030 
	C513.399231,573.200073 510.912872,573.169250 508.426971,573.158203 
	C505.731445,573.146301 503.972321,572.046326 503.771637,568.668091 
z"/>
<path fill="#000000" opacity="1.000000" stroke="none" 
	d="
M546.239990,563.980042 
	C546.186707,573.223328 546.186707,573.232300 537.315918,573.206055 
	C535.322571,573.200195 533.323730,573.184143 531.337891,573.034119 
	C529.213928,572.873657 528.026062,571.645569 527.910583,569.487610 
	C527.848450,568.326599 527.832825,567.161926 527.831665,565.998901 
	C527.818848,552.832214 526.582703,554.224243 539.965210,553.986389 
	C544.348450,553.908508 546.627136,555.391602 546.239441,560.015808 
	C546.142639,561.170898 546.235107,562.341858 546.239990,563.980042 
z"/>
<path fill="#000000" opacity="1.000000" stroke="none" 
	d="
M503.995422,594.502441 
	C503.835907,593.394714 503.768311,592.733948 503.751831,592.071899 
	C503.394989,577.729187 504.302216,576.945435 518.561096,578.668274 
	C520.959839,578.958069 522.224365,579.920227 522.205811,582.388550 
	C522.195801,583.714172 522.411316,585.061707 522.240601,586.362000 
	C521.784607,589.834839 524.172180,594.817993 520.440552,596.452087 
	C515.886475,598.446289 510.406616,597.803833 505.389557,596.395386 
	C504.869080,596.249268 504.532867,595.446716 503.995422,594.502441 
z"/>
<path fill="#000000" opacity="1.000000" stroke="none" 
	d="
M543.497803,596.948486 
	C539.564453,597.120667 536.072327,597.085571 532.591125,597.264893 
	C529.120239,597.443787 528.001038,595.774475 527.818604,592.495911 
	C527.045654,578.605774 528.439758,577.223877 542.299988,578.754150 
	C543.466125,578.882874 544.619324,578.937622 545.442017,579.951294 
	C547.266541,582.199341 546.196777,594.327759 543.497803,596.948486 
z"/>
</svg>